<svg width="95" height="100" viewBox="0 0 95 100" fill="none" xmlns="http://www.w3.org/2000/svg">
<g filter="url(#filter0_d_12_31)">
<path d="M87.6911 2.13382C57.1482 5.73643 39.2703 5.51053 7.91386 2.11934C7.32965 2.05615 6.80678 2.51631 6.79525 3.1038C6.14737 36.1169 5.39544 54.3747 6.78025 83.7336C6.80142 84.1826 7.12773 84.5704 7.56624 84.6689C38.0502 91.5171 55.9604 93.0208 88.0575 84.698C88.4994 84.5834 88.8151 84.1731 88.8129 83.7166C88.6584 52.3671 88.8888 34.3895 88.8194 3.13365C88.8181 2.53518 88.2855 2.06371 87.6911 2.13382Z" fill="white" stroke="black" stroke-width="3"/>
<path d="M17.5251 19.7838C17.5251 19.7838 20.3298 17.9599 22.52 17.441C28.2137 16.0921 28.7536 21.5789 34.1456 22.523C43.1326 24.0967 50.8578 15.4963 58.8497 18.3857C62.5464 19.7222 61.6693 23.1427 65.9019 23.7316C69.7938 24.273 72.6121 23.0667 76.3006 21.488C78.4193 20.5811 79.295 19.7625 81.2137 18.6568" stroke="black" stroke-width="3"/>
<path d="M17.2486 35.8906C17.2486 35.8906 18.9079 34.2586 20.2594 33.8802C23.773 32.8964 24.4525 38.3598 27.9168 39.6268C33.691 41.7385 38.0405 33.7034 43.2672 37.056C45.6849 38.6067 45.3418 41.9377 48.0518 42.7816C50.5438 43.5575 52.2497 42.5375 54.4824 41.2026C55.7648 40.4358 56.2675 39.6796 57.4114 38.7037" stroke="black" stroke-width="3"/>
<path d="M66.3107 58.6585C66.3107 58.6585 64.196 60.4516 62.4827 60.9532C58.0287 62.2573 57.2222 56.8081 52.8523 55.8381C45.5687 54.2213 39.9888 62.7104 33.4098 59.7937C30.3666 58.4446 30.833 55.0549 27.4131 54.4446C24.2684 53.8834 22.1006 55.0635 19.2634 56.6079C17.6338 57.4951 16.9905 58.3023 15.5342 59.388" stroke="black" stroke-width="3"/>
</g>
<defs>
<filter id="filter0_d_12_31" x="0.500035" y="0.613373" width="93.8328" height="99.2737" filterUnits="userSpaceOnUse" color-interpolation-filters="sRGB">
<feFlood flood-opacity="0" result="BackgroundImageFix"/>
<feColorMatrix in="SourceAlpha" type="matrix" values="0 0 0 0 0 0 0 0 0 0 0 0 0 0 0 0 0 0 127 0" result="hardAlpha"/>
<feOffset dy="4"/>
<feGaussianBlur stdDeviation="2"/>
<feComposite in2="hardAlpha" operator="out"/>
<feColorMatrix type="matrix" values="0 0 0 0 0 0 0 0 0 0 0 0 0 0 0 0 0 0 0.25 0"/>
<feBlend mode="normal" in2="BackgroundImageFix" result="effect1_dropShadow_12_31"/>
<feBlend mode="normal" in="SourceGraphic" in2="effect1_dropShadow_12_31" result="shape"/>
</filter>
</defs>
</svg>
